<?xml version="1.0" standalone="no"?>
<!DOCTYPE svg PUBLIC "-//W3C//DTD SVG 20010904//EN"
 "http://www.w3.org/TR/2001/REC-SVG-20010904/DTD/svg10.dtd">
<svg version="1.0" xmlns="http://www.w3.org/2000/svg"
 width="512.000000pt" height="512.000000pt" viewBox="0 0 512.000000 512.000000"
 preserveAspectRatio="xMidYMid meet">

<g transform="translate(0.000000,512.000000) scale(0.100000,-0.100000)"
fill="#000000" stroke="none">
<path d="M577 5096 c-114 -47 -174 -104 -225 -213 l-27 -58 0 -2265 0 -2265
32 -67 c40 -85 106 -151 191 -191 l67 -32 1945 0 1945 0 67 32 c85 40 151 106
191 191 l32 67 3 1610 c2 1090 -1 1630 -8 1672 -22 132 -98 318 -175 433 -44
65 -815 843 -895 903 -111 83 -312 169 -459 197 -34 6 -518 10 -1340 10
l-1286 0 -58 -24z m2562 -302 l61 -7 0 -633 0 -634 634 0 633 0 7 -61 c12
-117 7 -3043 -5 -3079 -23 -64 103 -60 -1909 -60 -2012 0 -1886 -4 -1909 60
-16 47 -16 4313 0 4360 22 62 -41 59 1250 60 647 0 1204 -3 1238 -6z m788
-546 c216 -216 393 -396 393 -400 0 -5 -180 -8 -400 -8 l-400 0 0 400 c0 220
3 400 7 400 5 0 185 -177 400 -392z"/>
<path d="M1416 3173 c9 -16 192 -288 405 -607 l388 -578 -73 -107 c-193 -281
-836 -1231 -836 -1236 0 -3 297 -5 660 -5 l660 0 0 230 0 230 -150 0 -150 0
117 175 c64 96 119 175 123 175 3 0 129 -182 279 -405 l272 -405 355 0 c194 0
354 2 354 5 0 5 -643 955 -836 1236 l-73 107 388 578 c213 319 396 591 405
607 l18 27 -345 0 -346 0 -233 -345 c-128 -189 -235 -344 -238 -344 -3 0 -110
155 -238 344 l-233 345 -346 0 -345 0 18 -27z"/>
</g>
</svg>
